<?xml version="1.0" encoding="utf-8"?>


<!-- License: CC Attribution. Made by wishforge.games: https://www.wishforge.games/ -->
<svg version="1.1" id="Icons" xmlns="http://www.w3.org/2000/svg" xmlns:xlink="http://www.w3.org/1999/xlink" 
	 viewBox="0 0 32 32" xml:space="preserve">
<style type="text/css">
	.st0{fill:none;stroke:#000000;stroke-width:2;stroke-linecap:round;stroke-linejoin:round;stroke-miterlimit:10;}
	.st1{fill:none;stroke:#000000;stroke-width:2;stroke-linecap:round;stroke-linejoin:round;}
	.st2{fill:none;stroke:#000000;stroke-width:2;stroke-linecap:round;stroke-linejoin:round;stroke-dasharray:5.2066,0;}
</style>
<path class="st0" d="M21,9L21,9c-1.9,1.2-3,3.4-3,5.6v0c0,3.5,1.3,6.8,3.6,9.4l1.5,1.6c1.1,1.3,0.2,3.3-1.5,3.3H10.5
	c-1.7,0-2.6-2-1.5-3.3l1.5-1.6c2.3-2.6,3.6-6,3.6-9.4v0c0-2.3-1.1-4.4-3-5.6l0,0H21z"/>
<line class="st0" x1="19" y1="1" x2="19" y2="2"/>
<line class="st0" x1="13" y1="2" x2="13" y2="3"/>
<line class="st0" x1="16" y1="5" x2="16" y2="6"/>
<line class="st0" x1="10" y1="25" x2="22" y2="25"/>
</svg>